<?xml version="1.0" encoding="utf-8"?>
<!-- Generator: Adobe Illustrator 21.0.0, SVG Export Plug-In . SVG Version: 6.00 Build 0)  -->
<svg version="1.1" id="headerlogo-svg" xmlns="http://www.w3.org/2000/svg" xmlns:xlink="http://www.w3.org/1999/xlink" x="0px"
	 y="0px" viewBox="0 0 1804.9 303" style="enable-background:new 0 0 1804.9 303;" xml:space="preserve">
<style type="text/css">
	.st0{fill:#E0E0E0;}
</style>
<g>
	<path class="st0" d="M377,148c-4.8,24.8-15.8,39.6-33.7,49.2c-4.6,2.4-9.6,3.7-14.4,5.5c-16,6-32,12-48,18
		c-8.8,3.3-17.6,6.3-26.5,9.7c-11.6,4.3-23,8.7-34.6,12.9c-19.1,7.1-38.2,14.1-57.3,21.2c-8.5,3.1-16.7,7-25.6,9
		c-21.6,4.8-41-0.6-57-15.9c-17.1-16.2-23.2-36.6-18.1-59.1c5.5-24.8,21.9-41,46.7-48c7.1-2.1,7-1.7,6.9-9.1
		c-0.5-22.5,5.8-42.8,20.1-60.5c10.2-12.7,22.9-22.2,38-27.4C205.8,42.4,236.2,47,263,69c5.5,4.4,9.9,9.9,14.5,15.3
		c2.2,2.7,4.1,3,7,1.3c10-6,21.2-8.4,32.6-7.7c22.9,1.5,40.8,12.1,52.3,32.2C376.8,123,379.2,137.5,377,148z"/>
	<path class="st0" d="M389.7,135.5c-0.4-12.9-4.8-24-11-34.2c-7.3-11.9-17.1-21.1-29.7-27.6c-14.9-7.8-30.5-9.8-46.7-7.6
		c-5.3,0.8-10.4,2.9-15.6,4.1c-1.3,0.3-3.5,0.3-4.2-0.5c-12.3-13.6-27.3-23.2-44.4-29.5c-0.6-0.3-1.3-0.6-2.5-1.3
		c1.3-1,2.1-1.9,3.2-2.4c29.9-18.2,69.6-10.9,90.6,17.1c2.4,3.2,3.9,3.3,7.5,1.4c12.5-6.5,25.6-7,38.6-2.1
		c24.1,9.1,36.7,34,30.2,58.9C403.6,119.7,397.1,129.5,389.7,135.5z"/>
</g>
<g>
	<path class="st0" d="M496,91v127.1h69.3v36.4h-112V91H496z"/>
	<path class="st0" d="M621.5,91v163.5h-42.7V91H621.5z"/>
	<path class="st0" d="M785.7,132.3c0,17-11,30.8-28.2,35.5c20.8,4.2,33.6,20.3,33.6,41.3c0,28-24.5,45.5-63,45.5h-80.7V91h77.7
		C762.2,91,785.7,107.1,785.7,132.3z M741.9,139.7c0-9.8-7.2-15.6-19.1-15.4h-32.7v31.7h32.7C734.6,156.1,741.9,150,741.9,139.7z
		 M747,203.7c0-10.3-9.3-16.8-24.3-16.6h-32.7v34.3h32.7C737.7,221.4,747,214.8,747,203.7z"/>
	<path class="st0" d="M864.8,108.7c-21,0-34.8,8.4-34.8,22.4c0,42.4,91.9,20.3,91.7,79.5c0,27.1-24,44.5-59,44.5
		c-23.8,0-47.1-10.3-62.5-25l8.4-16.1c15.2,14.5,35.9,22.9,54.3,22.9c23.6,0,38.3-9.6,38.3-25.4c0.2-43.6-91.7-20.5-91.7-79.1
		c0-25.7,22.6-42,56.4-42c18.9,0,38.3,6.1,51.8,15.2l-7.9,16.6C895.1,112.7,877.8,108.7,864.8,108.7z"/>
	<path class="st0" d="M1059.1,91.2v17.3h-92.1v54.8h82.3v17h-82.3v56.9h95.2v17.3H948.3V91.2H1059.1z"/>
	<path class="st0" d="M1191.5,212.7h-88.9l-18.2,41.7h-19.8l73.2-163.3h19.4l73,163.3H1210L1191.5,212.7z M1184.1,195.5l-37.1-84
		l-36.6,84H1184.1z"/>
	<path class="st0" d="M1351.1,254.5l-34.3-52.2c-3.3,0.2-6.8,0.5-10.5,0.5h-43.4v51.8h-18.7V91.2h62c40.8,0,64.4,20.1,64.4,54.8
		c0,26.8-13.3,45.2-36.9,52.7l38.5,55.7H1351.1z M1306.3,185.5c29.6,0,46.4-13.3,46.4-39c0-25-16.8-38-46.4-38h-43.4v77H1306.3z"/>
	<path class="st0" d="M1471.2,107.8c-36.9,0-66.5,28.7-66.5,64.8c0,35.9,29.6,65.1,66.5,65.1c18,0,35.5-7.5,48.3-19.6l11.4,12.4
		c-16.1,15.2-38,24.7-60.6,24.7c-47.1,0-84.4-36.4-84.4-82.6c0-45.7,37.8-81.9,85.1-81.9c22.4,0,44.1,9.1,59.7,23.8l-11.2,13.5
		C1506.9,115.5,1489.1,107.8,1471.2,107.8z"/>
	<path class="st0" d="M1571.5,91.2v73.9h98.4V91.2h18.7v163.3h-18.7v-72.3h-98.4v72.3h-18.7V91.2H1571.5z"/>
</g>
</svg>
