<?xml version="1.0" encoding="utf-8"?>
<!-- Generator: Adobe Illustrator 17.0.2, SVG Export Plug-In . SVG Version: 6.00 Build 0)  -->
<!DOCTYPE svg PUBLIC "-//W3C//DTD SVG 1.1//EN" "http://www.w3.org/Graphics/SVG/1.1/DTD/svg11.dtd">
<svg version="1.1" id="Layer_1" xmlns="http://www.w3.org/2000/svg" xmlns:xlink="http://www.w3.org/1999/xlink" x="0px" y="0px"
	 width="56.693px" height="56.693px" viewBox="0 0 56.693 56.693" enable-background="new 0 0 56.693 56.693" xml:space="preserve">
<g>
	<path d="M36.352,28.708H19.015c-0.553,0-1,0.447-1,1s0.447,1,1,1h17.337c0.553,0,1-0.447,1-1S36.904,28.708,36.352,28.708z"/>
	<path d="M53.004,21.258c-0.19-0.219-0.466-0.344-0.755-0.344h-1.355L48.482,8.975c-0.053-0.26-0.207-0.488-0.428-0.635
		s-0.492-0.196-0.751-0.147l-27.86,5.648c-1.641-3.521-2.58-3.525-3.005-3.525h-6.216c-1.46,0-2.647,1.188-2.647,2.648v7.95H4.94
		c-0.289,0-0.564,0.125-0.755,0.344c-0.189,0.219-0.275,0.509-0.235,0.796l3.635,25.847c0.069,0.493,0.492,0.86,0.99,0.86h40.041
		c0.498,0,0.921-0.367,0.99-0.86l3.634-25.847C53.279,21.767,53.193,21.477,53.004,21.258z M46.719,10.352l2.135,10.562h-34.83
		l-0.831-3.766L46.719,10.352z M9.574,12.964c0-0.357,0.29-0.648,0.647-0.648h6.008c0.267,0.268,0.718,1.02,1.178,1.937l-5.61,1.137
		c-0.264,0.054-0.494,0.21-0.64,0.436c-0.146,0.225-0.196,0.499-0.139,0.761l0.956,4.328H9.574V12.964z M47.746,46.761H9.443
		L6.09,22.915h45.009L47.746,46.761z"/>
</g>
</svg>
