<?xml version="1.0" encoding="utf-8"?>
<svg version="1.1" id="more" xmlns="http://www.w3.org/2000/svg" xmlns:xlink="http://www.w3.org/1999/xlink" x="0px" y="0px"
	 viewBox="0 0 15 15" style="enable-background:new 0 0 15 15;" xml:space="preserve">
<style type="text/css">
	.st0{fill:#898989;}
</style>
<path class="st0" d="M13.7,4.9L13.7,4.9C14,5.2,14,5.5,13.8,5.7l-6,6c-0.2,0.2-0.5,0.2-0.6,0l-0.1-0.1c-0.2-0.2-0.2-0.5,0-0.6l6-6
	C13.3,4.8,13.6,4.8,13.7,4.9z"/>
<path class="st0" d="M7.9,11.6L7.9,11.6c-0.2,0.2-0.5,0.2-0.7,0.1l-6-6C1,5.5,1,5.2,1.2,5l0.1-0.1c0.2-0.2,0.5-0.2,0.6,0l6,6
	C8.1,11.1,8.1,11.4,7.9,11.6z"/>
</svg>
