<?xml version="1.0" encoding="utf-8"?>
<!-- Generator: Adobe Illustrator 21.0.0, SVG Export Plug-In . SVG Version: 6.00 Build 0)  -->
<svg version="1.1" id="图层_1" xmlns="http://www.w3.org/2000/svg" xmlns:xlink="http://www.w3.org/1999/xlink" x="0px" y="0px"
	 viewBox="0 0 330 303" style="enable-background:new 0 0 330 303;" xml:space="preserve">
<style type="text/css">
	.st0{fill:#EDEDED;}
</style>
<g>
	<g>
		<path class="st0" d="M197.6,187.2c-7.5,15-18.4,27.2-30.8,38.5c-12.4-11.3-23.2-23.5-30.9-38.7c-4.9,1.2-9.9,2.4-14.9,3.7
			c-14.5,3.9-28.6,8.8-41.8,16.1c-8.6,4.8-16.4,10.4-22.2,18.5c-3.2,4.5-5.5,9.5-5.6,15.1c-0.2,7.8-0.2,15.5,0.3,23.3
			c0.6,8.5,5.5,14.3,13.1,17.8c6.1,2.8,12.7,3.8,19.3,3.8c55.2,0.1,110.3,0.1,165.5-0.1c5.5,0,11.2-1.1,16.5-2.8
			c9.2-2.8,15.2-9.2,15.8-19.1c0.5-7.8,0.5-15.7,0.1-23.5c-0.3-7.1-3.9-13.1-8.6-18.3c-6.9-7.7-15.6-13-24.7-17.6
			C235.1,197.1,212.2,189.6,197.6,187.2z"/>
		<path class="st0" d="M111,98.9c1,21.3,4.4,40.9,15,58.5c7.4,12.2,17.5,21,31.7,24c16.7,3.5,30.8-1.9,42.4-14.1
			c9.9-10.5,15.1-23.4,18.5-37.2c2.8-11.5,4.4-23.1,3.8-35c-0.8-13.6-4.4-26.2-14.7-36c-7.5-7.1-16.6-10.7-26.5-12.4
			c-11.9-2-23.8-1.8-35.5,1.6c-19,5.5-29.8,18.3-33.3,37.6C111.5,90.5,111.3,95.3,111,98.9z"/>
	</g>
</g>
</svg>
