<?xml version="1.0" encoding="utf-8"?>
<!-- Generator: Adobe Illustrator 17.0.2, SVG Export Plug-In . SVG Version: 6.00 Build 0)  -->
<!DOCTYPE svg PUBLIC "-//W3C//DTD SVG 1.1//EN" "http://www.w3.org/Graphics/SVG/1.1/DTD/svg11.dtd">
<svg version="1.1" id="Layer_1" xmlns="http://www.w3.org/2000/svg" xmlns:xlink="http://www.w3.org/1999/xlink" x="0px" y="0px"
	 width="56.693px" height="56.693px" viewBox="0 0 56.693 56.693" enable-background="new 0 0 56.693 56.693" xml:space="preserve">
<g>
	<path d="M52.221,45.7h-3.4l0.659-0.198c0.528-0.159,0.828-0.717,0.67-1.246l-9.778-32.541c-0.076-0.254-0.251-0.467-0.484-0.593
		c-0.234-0.125-0.506-0.153-0.762-0.077l-7.17,2.157c-0.528,0.159-0.828,0.717-0.67,1.246l1.27,4.224
		c-0.012,0-0.021-0.007-0.033-0.007h-8.889v-5.003c0-0.553-0.447-1-1-1h-7.279c-0.553,0-1,0.447-1,1v9.253H7.932
		c-0.553,0-1,0.447-1,1V45.7H5.423c-0.553,0-1,0.447-1,1s0.447,1,1,1h2.509h7.278h0.144h7.279h9.889h19.699c0.553,0,1-0.447,1-1
		S52.774,45.7,52.221,45.7z M38.744,13.249l9.203,30.625l-5.254,1.58L33.489,14.83L38.744,13.249z M40.678,45.7h-7.156V21.889
		L40.678,45.7z M8.932,45.7V24.916h5.278V45.7H8.932z M16.354,14.663h5.279v5.003V45.7h-5.279V14.663z M23.633,45.7V20.666h7.889
		V45.7H23.633z"/>
	<path d="M27.578,22.771c-1.396,0-2.532,1.136-2.532,2.532c0,1.396,1.136,2.531,2.532,2.531c1.396,0,2.531-1.136,2.531-2.531
		C30.109,23.907,28.973,22.771,27.578,22.771z M27.578,25.835c-0.294,0-0.532-0.238-0.532-0.531c0-0.294,0.238-0.532,0.532-0.532
		c0.293,0,0.531,0.238,0.531,0.532C28.109,25.596,27.871,25.835,27.578,25.835z"/>
</g>
</svg>
