<?xml version="1.0" encoding="utf-8"?>
<!-- Generator: Adobe Illustrator 17.0.2, SVG Export Plug-In . SVG Version: 6.00 Build 0)  -->
<!DOCTYPE svg PUBLIC "-//W3C//DTD SVG 1.1//EN" "http://www.w3.org/Graphics/SVG/1.1/DTD/svg11.dtd">
<svg version="1.1" id="Layer_1" xmlns="http://www.w3.org/2000/svg" xmlns:xlink="http://www.w3.org/1999/xlink" x="0px" y="0px"
	 width="56.693px" height="56.693px" viewBox="0 0 56.693 56.693" enable-background="new 0 0 56.693 56.693" xml:space="preserve">
<g>
	<path d="M40.934,22.738c0-7.624-5.711-13.826-12.73-13.826H16.331c-7.02,0-12.73,6.203-12.73,13.826
		c0,6.404,4.019,11.911,9.668,13.419v8.388c0,0.393,0.23,0.75,0.588,0.911c0.133,0.06,0.272,0.089,0.412,0.089
		c0.238,0,0.475-0.085,0.661-0.25l9.912-8.731h3.362C35.223,36.564,40.934,30.362,40.934,22.738z M24.463,34.564
		c-0.243,0-0.479,0.089-0.661,0.25l-8.534,7.518v-6.97c0-0.479-0.34-0.891-0.81-0.982C9.326,33.385,5.6,28.489,5.6,22.738
		c0-6.521,4.813-11.826,10.73-11.826h11.873c5.917,0,10.73,5.305,10.73,11.826s-4.813,11.826-10.73,11.826H24.463z"/>
	<path d="M43.84,23.73c-0.553,0-1,0.448-1,1s0.447,1,1,1c4.035,0,7.317,3.631,7.317,8.094c0,4.398-3.113,7.951-7.087,8.088
		c-0.539,0.019-0.966,0.46-0.966,1v3.219l-3.738-3.904c-0.189-0.197-0.45-0.309-0.723-0.309h-3.223
		c-2.318,0-4.448-1.179-5.845-3.234c-0.311-0.457-0.933-0.576-1.389-0.265c-0.457,0.31-0.576,0.932-0.266,1.389
		c1.748,2.574,4.552,4.11,7.499,4.11h2.796l5.165,5.394c0.192,0.201,0.455,0.309,0.723,0.309c0.125,0,0.252-0.023,0.373-0.072
		c0.379-0.152,0.627-0.52,0.627-0.928v-4.796c4.587-0.665,8.053-4.873,8.053-10C53.158,28.258,48.978,23.73,43.84,23.73z"/>
	<path d="M32.128,19.726c0-0.552-0.447-1-1-1H13.298c-0.553,0-1,0.448-1,1s0.447,1,1,1h17.829
		C31.68,20.726,32.128,20.278,32.128,19.726z"/>
	<path d="M22.05,25.07h-8.752c-0.553,0-1,0.448-1,1s0.447,1,1,1h8.752c0.553,0,1-0.448,1-1S22.603,25.07,22.05,25.07z"/>
</g>
</svg>
